<svg xmlns="http://www.w3.org/2000/svg" xmlns:xlink="http://www.w3.org/1999/xlink" xmlns:lucid="lucid" width="1269.33" height="1061.67"><g transform="translate(-118.66666666666677 -58.66666666670511)" lucid:page-tab-id="0_0"><path d="M285.7 417.7a8.85 8.85 0 0 1 9.93 0l142.07 96.27a4.07 4.07 0 0 1 0 6.73l-142.07 96.27a8.85 8.85 0 0 1-9.93 0L143.63 520.7a4.07 4.07 0 0 1 0-6.73z" fill="#fff"/><path d="M292.5 416.38l.26.04 1 .3.97.44 1.62 1.1m3.25 2.2l3.25 2.2m3.25 2.2l3.25 2.2m3.25 2.2l3.25 2.2m3.25 2.2l3.25 2.2m3.25 2.2l3.25 2.2m3.25 2.2l3.24 2.2m3.25 2.2l3.24 2.2m3.25 2.2l3.24 2.2m3.25 2.2l3.24 2.2m3.25 2.2l3.24 2.2m3.25 2.2l3.24 2.2m3.25 2.2l3.24 2.2m3.25 2.2l3.24 2.2m3.25 2.2l3.23 2.2m3.25 2.2l3.25 2.2m3.25 2.2l3.25 2.2m3.25 2.2l3.25 2.2m3.25 2.2l3.25 2.2m3.25 2.2l3.25 2.2m3.25 2.2l3.25 2.2m3.25 2.2l3.25 2.2m3.24 2.2l1.63 1.1.6.5.5.63.1.16m.34 3.43l-.06.18-.37.7-.5.6-1.6 1.1m-3.26 2.2l-3.24 2.2m-3.24 2.2l-3.24 2.2m-3.25 2.2l-3.24 2.2m-3.24 2.2l-3.25 2.2m-3.25 2.2l-3.24 2.2m-3.24 2.2l-3.24 2.2m-3.25 2.2l-3.24 2.2m-3.25 2.2l-3.24 2.2m-3.24 2.2l-3.24 2.2m-3.24 2.2l-3.24 2.2m-3.25 2.2l-3.25 2.2m-3.24 2.2l-3.24 2.2m-3.24 2.2l-3.24 2.2m-3.24 2.2l-3.25 2.2m-3.25 2.2l-3.24 2.2m-3.23 2.2l-3.25 2.2m-3.24 2.2l-3.24 2.2m-3.24 2.2l-3.25 2.2m-3.24 2.2l-3.23 2.2m-3.24 2.2l-3.25 2.2m-3.24 2.2l-3.24 2.2m-3.25 2.2l-1.62 1.1-.9.53-.97.43-.25.08m-4.66.3l-.26-.06-1-.3-.97-.43-1.62-1.1m-3.25-2.2l-3.25-2.2m-3.25-2.2l-3.25-2.2m-3.25-2.2l-3.25-2.2m-3.24-2.2l-3.25-2.2m-3.26-2.2l-3.25-2.2m-3.26-2.2L246 590m-3.26-2.2l-3.25-2.2m-3.26-2.2l-3.25-2.2m-3.26-2.2l-3.25-2.2m-3.26-2.2l-3.25-2.2m-3.26-2.2l-3.24-2.2m-3.25-2.2l-3.25-2.2m-3.25-2.2l-3.25-2.2m-3.25-2.2l-3.25-2.2m-3.25-2.2l-3.25-2.2m-3.25-2.2L181 546m-3.25-2.2l-3.25-2.2m-3.25-2.2l-3.25-2.2m-3.25-2.2l-3.24-2.2m-3.24-2.2l-3.25-2.2m-3.24-2.2l-3.25-2.2m-3.24-2.2l-1.63-1.1-.6-.5-.5-.62-.1-.18m-.33-3.42l.05-.2.38-.7.5-.6 1.62-1.1m3.24-2.2l3.23-2.2m3.24-2.2l3.25-2.2m3.24-2.2l3.24-2.2m3.24-2.2l3.25-2.2m3.23-2.2l3.24-2.2m3.24-2.2l3.26-2.2m3.24-2.2l3.24-2.2m3.25-2.2l3.23-2.2m3.24-2.2l3.24-2.2m3.26-2.2l3.24-2.2m3.24-2.2l3.24-2.2m3.25-2.2l3.24-2.2m3.24-2.2l3.25-2.2m3.25-2.2l3.24-2.2m3.24-2.2l3.24-2.2m3.25-2.2l3.24-2.2m3.25-2.2l3.24-2.2m3.24-2.2l3.24-2.2m3.24-2.18l3.25-2.2m3.24-2.2l3.25-2.2m3.24-2.2l3.24-2.2m3.24-2.2l1.62-1.1.9-.54.97-.43.25-.07" stroke="#3a414a" fill="none"/><use xlink:href="#a" transform="matrix(1,0,0,1,143.66666666666677,419.3333333333332) translate(68.09141975308643 108.47569444444443)"/><use xlink:href="#b" transform="matrix(1,0,0,1,143.66666666666677,419.3333333333332) translate(182.56055555555554 108.47569444444443)"/><path d="M184 620.08a6 6 0 0 1 6-6h201.33a6 6 0 0 1 6 6v82.67a6 6 0 0 1-6 6H190a6 6 0 0 1-6-6zm21.33-6v94.67M184 635.42h213.33" fill="#fff"/><path d="M187.08 614.86l.2-.12.87-.36.9-.22h2.03m4.05 0h4.04m4.05 0h4.05m4.04 0h4.06m4.04 0h4.05m4.04-.02h4.04m4.04 0h4.05m4.04 0h4.05m4.05 0h4.04m4.06 0h4.04m4.05 0H272m4.04 0l4.04-.02m4.05 0h4.04m4.05 0h4.05m4.04 0h4.06m4.04 0h4.05m4.04 0h4.04m4.04 0h4.05m4.04 0l4.05-.02m4.05 0h4.04m4.06 0h4.04m4.05 0H361m4.04 0h4.04m4.05 0h4.04m4.05 0h4.05m4.04-.02h2.03l.94.08.92.22.2.1m3.16 2.68l.12.2.36.87.22.92v2.1m0 4.17v4.18m0 4.18l.02 4.18m0 4.18v4.18m0 4.18v4.18m0 4.18l.02 4.18m0 4.18v4.18m0 4.18v4.18m.02 4.18v4.18m0 4.18v4.18m0 4.18v2.1l-.06.93-.22.9-.1.22m-2.68 3.15l-.2.13-.87.36-.93.22h-2.02m-4.05 0h-4.04m-4.05 0h-4.03m-4.05 0h-4.04m-4.05 0h-4.04m-4.06 0h-4.05m-4.05 0l-4.05.02m-4.04 0h-4.05m-4.03 0h-4.05m-4.04 0h-4.05m-4.04 0h-4.06m-4.04 0h-4.05m-4.05 0h-4.04m-4.05 0l-4.03.02m-4.05 0h-4.04m-4.05 0h-4.04m-4.06 0h-4.04m-4.05 0h-4.05m-4.04 0h-4.05m-4.03 0h-4.05m-4.04.02h-4.05m-4.04 0h-4.06m-4.04 0h-4.05m-4.05 0h-4.04m-4.05 0h-4.03m-4.05 0H190l-.94-.06-.9-.22-.23-.1m-3.15-2.68l-.13-.2-.36-.88-.23-.9v-2.1m0-4.18v-4.18m0-4.18v-4.18m-.02-4.18v-4.18m0-4.18v-4.18m0-4.18v-4.18m-.02-4.18v-4.18m0-4.18v-4.18m0-4.18l-.02-4.2m0-4.17v-4.18m0-4.18v-2.1l.07-.92.22-.92.08-.22m20.95-3.92v1.98m0 3.94v3.95m0 3.94v3.93m0 3.95v3.94m0 3.95v3.94m0 3.96v3.94m0 3.95v3.94m0 3.93v3.95m0 3.94v3.95m0 3.94v3.96m0 3.94v3.95m0 3.94v3.93m0 3.95v1.97M184 635.42h1.98m3.95 0h3.95m3.95 0h3.95m3.95 0h3.95m3.95 0h3.95m3.95 0h3.95m3.95 0h3.95m3.95 0h3.95m3.95 0h3.96m3.94 0h3.95m3.94 0H265m3.94 0h3.95m3.94 0h3.95m3.94 0h3.95m3.94 0h3.95m3.94 0h3.95m3.94 0h3.96m3.95 0h3.95m3.95 0h3.95m3.95 0h3.95m3.95 0H344m3.95 0h3.95m3.95 0h3.95m3.95 0h3.95m3.95 0h3.95m3.96 0h3.95m3.96 0h3.95m3.96 0h1.97" stroke="#3a414a" fill="none"/><use xlink:href="#c" transform="matrix(1,0,0,1,217.33333333333343,647.4173228346456) translate(7.796296296296305 30.27777777777778)"/><use xlink:href="#d" transform="matrix(1,0,0,1,217.33333333333343,647.4173228346456) translate(115.75925925925927 30.27777777777778)"/><path d="M285.7 803.03a8.85 8.85 0 0 1 9.93 0L437.7 899.3a4.07 4.07 0 0 1 0 6.73l-142.07 96.27a8.85 8.85 0 0 1-9.93 0l-142.07-96.27a4.07 4.07 0 0 1 0-6.73z" fill="#fff"/><path d="M292.5 801.7l.26.06 1 .3.97.43 1.62 1.1m3.25 2.2l3.25 2.2m3.25 2.2l3.25 2.2m3.25 2.2l3.25 2.2m3.25 2.2l3.25 2.2m3.25 2.2l3.25 2.2m3.25 2.2l3.24 2.2m3.25 2.2l3.24 2.2m3.25 2.2l3.24 2.2m3.25 2.2l3.24 2.2m3.25 2.2l3.24 2.2m3.25 2.2l3.24 2.2m3.25 2.2l3.24 2.2m3.25 2.2l3.24 2.2m3.25 2.2l3.23 2.2m3.25 2.2l3.25 2.2m3.25 2.2l3.25 2.2m3.25 2.2l3.25 2.2m3.25 2.2l3.25 2.2m3.25 2.2l3.25 2.2m3.25 2.2l3.25 2.2m3.25 2.2l3.25 2.2m3.24 2.2l1.63 1.1.6.5.5.62.1.18m.34 3.42l-.06.2-.37.7-.5.6-1.6 1.1m-3.26 2.2l-3.24 2.2m-3.24 2.2l-3.24 2.2m-3.25 2.2l-3.24 2.2m-3.24 2.2l-3.25 2.2m-3.25 2.2l-3.24 2.2m-3.24 2.2l-3.24 2.2m-3.25 2.2l-3.24 2.2m-3.25 2.2l-3.24 2.2m-3.24 2.2l-3.24 2.2m-3.24 2.2l-3.24 2.2m-3.25 2.2l-3.25 2.2m-3.24 2.2l-3.24 2.2m-3.24 2.2l-3.24 2.2m-3.24 2.2l-3.25 2.2m-3.25 2.2l-3.24 2.2m-3.23 2.2l-3.25 2.2m-3.24 2.2l-3.24 2.2m-3.24 2.2l-3.25 2.2M316.7 988l-3.23 2.2m-3.24 2.2l-3.25 2.2m-3.24 2.2l-3.24 2.2m-3.25 2.2l-1.62 1.1-.9.54-.97.43-.25.07m-4.66.28l-.26-.04-1-.3-.97-.44-1.62-1.1m-3.25-2.2l-3.25-2.2m-3.25-2.2l-3.25-2.2m-3.25-2.2l-3.25-2.2m-3.24-2.2l-3.25-2.2m-3.26-2.2l-3.25-2.2m-3.26-2.2l-3.25-2.2m-3.26-2.2l-3.25-2.2m-3.26-2.2l-3.25-2.2m-3.26-2.2l-3.25-2.2m-3.26-2.2l-3.25-2.2m-3.26-2.2l-3.24-2.2m-3.25-2.2l-3.25-2.2m-3.25-2.2l-3.25-2.2m-3.25-2.2l-3.25-2.2m-3.25-2.2l-3.25-2.2m-3.25-2.2l-3.25-2.2m-3.25-2.2l-3.25-2.2m-3.25-2.2l-3.25-2.2m-3.25-2.2l-3.24-2.2m-3.24-2.2l-3.25-2.2m-3.24-2.2l-3.25-2.2m-3.24-2.2l-1.63-1.1-.6-.5-.5-.63-.1-.16m-.33-3.43l.05-.18.38-.7.5-.6 1.62-1.1m3.24-2.2l3.23-2.2m3.24-2.2l3.25-2.2m3.24-2.2l3.24-2.2m3.24-2.2l3.25-2.2m3.23-2.2l3.24-2.2m3.24-2.2l3.26-2.2m3.24-2.2l3.24-2.2m3.25-2.2l3.23-2.2m3.24-2.2l3.24-2.2m3.26-2.2l3.24-2.2m3.24-2.2l3.24-2.2m3.25-2.2l3.24-2.2m3.24-2.2l3.25-2.2m3.25-2.2l3.24-2.2m3.24-2.2l3.24-2.2m3.25-2.2l3.24-2.2m3.25-2.2l3.24-2.2m3.24-2.2l3.24-2.2m3.24-2.2l3.25-2.2m3.24-2.2l3.25-2.2m3.24-2.2l3.24-2.2m3.24-2.2l1.62-1.1.9-.53.97-.43.25-.08" stroke="#3a414a" fill="none"/><use xlink:href="#e" transform="matrix(1,0,0,1,143.66666666666677,804.6666666666665) translate(68.09141975308643 108.47569444444443)"/><use xlink:href="#f" transform="matrix(1,0,0,1,143.66666666666677,804.6666666666665) translate(182.56055555555554 108.47569444444443)"/><path d="M184 1011.67a6 6 0 0 1 6-6h201.33a6 6 0 0 1 6 6v82.66a6 6 0 0 1-6 6H190a6 6 0 0 1-6-6zm21.33-6v94.66M184 1027h213.33" fill="#fff"/><path d="M187.08 1006.44l.2-.12.87-.36.9-.22h2.03m4.05 0h4.04m4.05 0h4.05m4.04 0h4.06m4.04 0h4.05m4.04 0h4.04m4.04-.02h4.05m4.04 0h4.05m4.05 0h4.04m4.06 0h4.04m4.05 0H272m4.04 0h4.04m4.05 0l4.04-.02m4.05 0h4.05m4.04 0h4.06m4.04 0h4.05m4.04 0h4.04m4.04 0h4.05m4.04 0h4.05m4.05 0l4.04-.02m4.06 0h4.04m4.05 0H361m4.04 0h4.04m4.05 0h4.04m4.05 0h4.05m4.04 0h2.03l.94.06.92.22.2.1m3.16 2.68l.12.2.36.87.22.93v2.1m0 4.17v4.18m0 4.18l.02 4.18m0 4.18v4.18m0 4.18v4.18m0 4.18l.02 4.18m0 4.18v4.18m0 4.18v4.18m.02 4.18v4.18m0 4.18v4.18m0 4.18v2.1l-.06.93-.22.92-.1.2m-2.68 3.16l-.2.12-.87.36-.93.22h-2.02m-4.05 0h-4.04m-4.05 0h-4.03m-4.05 0h-4.04m-4.05 0h-4.04m-4.06 0h-4.05m-4.05.02h-4.05m-4.04 0h-4.05m-4.03 0h-4.05m-4.04 0h-4.05m-4.04 0h-4.06m-4.04 0h-4.05m-4.05 0l-4.04.02m-4.05 0h-4.03m-4.05 0h-4.04m-4.05 0h-4.04m-4.06 0h-4.04m-4.05 0h-4.05m-4.04 0h-4.05m-4.03 0l-4.05.02m-4.04 0h-4.05m-4.04 0h-4.06m-4.04 0h-4.05m-4.05 0h-4.04m-4.05 0h-4.03m-4.05 0H190l-.94-.06-.9-.22-.23-.1m-3.15-2.68l-.13-.2-.36-.87-.23-.93v-2.1m0-4.17v-4.18m0-4.18v-4.18m-.02-4.18v-4.18m0-4.18v-4.18m0-4.18v-4.18m-.02-4.18v-4.18m0-4.18v-4.18m0-4.18l-.02-4.18m0-4.18v-4.18m0-4.18v-2.1l.07-.93.22-.92.08-.2m20.95-3.93v1.97m0 3.94v3.95m0 3.94v3.95m0 3.94v3.95m0 3.95v3.94m0 3.94v3.94m0 3.95v3.94m0 3.95v3.94m0 3.95v3.95m0 3.94v3.94m0 3.94v3.95m0 3.94v3.95m0 3.94v1.97M184 1027h1.98m3.95 0h3.95m3.95 0h3.95m3.95 0h3.95m3.95 0h3.95m3.95 0h3.95m3.95 0h3.95m3.95 0h3.95m3.95 0h3.96m3.94 0h3.95m3.94 0H265m3.94 0h3.95m3.94 0h3.95m3.94 0h3.95m3.94 0h3.95m3.94 0h3.95m3.94 0h3.96m3.95 0h3.95m3.95 0h3.95m3.95 0h3.95m3.95 0H344m3.95 0h3.95m3.95 0h3.95m3.95 0h3.95m3.95 0h3.95m3.96 0h3.95m3.96 0h3.95m3.96 0h1.97" stroke="#3a414a" fill="none"/><use xlink:href="#c" transform="matrix(1,0,0,1,217.33333333333343,1039) translate(7.796296296296305 30.27777777777778)"/><use xlink:href="#g" transform="matrix(1,0,0,1,217.33333333333343,1039) translate(115.75925925925927 30.27777777777778)"/><path d="M748.37 803.03a8.85 8.85 0 0 1 9.93 0l142.07 96.27a4.07 4.07 0 0 1 0 6.73L758.3 1002.3a8.85 8.85 0 0 1-9.93 0L606.3 906.03a4.07 4.07 0 0 1 0-6.73z" fill="#fff"/><path d="M755.16 801.7l.26.06 1 .3.97.43 1.62 1.1m3.25 2.2l3.25 2.2m3.25 2.2l3.25 2.2m3.25 2.2l3.25 2.2m3.24 2.2l3.25 2.2m3.26 2.2l3.25 2.2m3.26 2.2L798 830m3.26 2.2l3.25 2.2m3.26 2.2l3.25 2.2m3.26 2.2l3.25 2.2m3.26 2.2l3.25 2.2m3.26 2.2l3.24 2.2m3.25 2.2l3.25 2.2m3.25 2.2l3.25 2.2m3.25 2.2l3.25 2.2m3.25 2.2l3.25 2.2m3.25 2.2L863 874m3.25 2.2l3.25 2.2m3.25 2.2l3.25 2.2m3.25 2.2l3.24 2.2m3.24 2.2l3.25 2.2m3.24 2.2l3.25 2.2m3.24 2.2l1.63 1.1.6.5.5.62.1.18m.33 3.42l-.05.2-.38.7-.5.6-1.62 1.1m-3.24 2.2l-3.23 2.2m-3.24 2.2l-3.25 2.2m-3.24 2.2l-3.24 2.2m-3.24 2.2l-3.25 2.2m-3.23 2.2l-3.24 2.2m-3.24 2.2l-3.26 2.2m-3.24 2.2l-3.24 2.2m-3.25 2.2l-3.23 2.2m-3.24 2.2l-3.24 2.2m-3.26 2.2l-3.24 2.2m-3.24 2.2l-3.24 2.2m-3.25 2.2l-3.24 2.2m-3.24 2.2l-3.25 2.2m-3.25 2.2l-3.24 2.2m-3.24 2.2l-3.24 2.2m-3.25 2.2l-3.24 2.2m-3.25 2.2l-3.24 2.2m-3.24 2.2l-3.24 2.2m-3.24 2.18l-3.25 2.2m-3.24 2.2l-3.25 2.2m-3.24 2.2l-3.24 2.2m-3.24 2.2l-1.62 1.1-.9.54-.97.43-.25.07m-4.68.28l-.26-.04-1-.3-.97-.44-1.62-1.1m-3.25-2.2l-3.25-2.2m-3.25-2.2l-3.25-2.2m-3.25-2.2l-3.25-2.2m-3.25-2.2l-3.25-2.2m-3.25-2.2l-3.25-2.2m-3.25-2.2l-3.24-2.2m-3.25-2.2l-3.24-2.2m-3.25-2.2l-3.24-2.2m-3.25-2.2l-3.24-2.2m-3.25-2.2l-3.24-2.2m-3.25-2.2l-3.24-2.2m-3.25-2.2l-3.24-2.2m-3.25-2.2l-3.24-2.2m-3.25-2.2l-3.23-2.2m-3.25-2.2l-3.25-2.2m-3.25-2.2l-3.25-2.2m-3.25-2.2l-3.25-2.2m-3.25-2.2l-3.25-2.2m-3.25-2.2l-3.25-2.2m-3.25-2.2l-3.25-2.2m-3.25-2.2l-3.25-2.2m-3.24-2.2l-1.63-1.1-.6-.5-.5-.63-.1-.16m-.34-3.43l.06-.18.37-.7.5-.6 1.6-1.1m3.26-2.2l3.24-2.2m3.24-2.2l3.24-2.2m3.25-2.2l3.24-2.2m3.24-2.2l3.25-2.2m3.25-2.2l3.24-2.2m3.24-2.2l3.24-2.2m3.25-2.2l3.24-2.2m3.25-2.2l3.24-2.2m3.24-2.2l3.24-2.2m3.24-2.2l3.24-2.2m3.25-2.2l3.25-2.2m3.24-2.2l3.24-2.2m3.24-2.2l3.24-2.2m3.24-2.2l3.25-2.2m3.25-2.2l3.24-2.2m3.23-2.2l3.25-2.2m3.24-2.2l3.24-2.2m3.24-2.2l3.25-2.2m3.24-2.2l3.23-2.2m3.24-2.2l3.25-2.2m3.24-2.2l3.24-2.2m3.25-2.2l1.62-1.1.9-.53.97-.43.25-.08" stroke="#3a414a" fill="none"/><use xlink:href="#e" transform="matrix(1,0,0,1,606.3333333333334,804.6666666666665) translate(68.09141975308643 108.47569444444443)"/><use xlink:href="#h" transform="matrix(1,0,0,1,606.3333333333334,804.6666666666665) translate(182.56055555555554 108.47569444444443)"/><path d="M646.67 1011.67a6 6 0 0 1 6-6H854a6 6 0 0 1 6 6v82.66a6 6 0 0 1-6 6H652.67a6 6 0 0 1-6-6zm21.33-6v94.66M646.67 1027H860" fill="#fff"/><path d="M649.74 1006.44l.2-.12.87-.36.93-.22h2.02m4.05 0h4.04m4.05 0h4.03m4.05 0h4.04m4.05 0h4.04m4.06 0h4.05m4.05-.02h4.05m4.04 0h4.05m4.03 0h4.05m4.04 0h4.05m4.04 0h4.06m4.04 0h4.05m4.05 0l4.04-.02m4.05 0h4.03m4.05 0h4.04m4.05 0h4.04m4.06 0h4.04m4.05 0h4.05m4.04 0h4.05m4.03 0l4.05-.02m4.04 0h4.05m4.04 0h4.06m4.04 0h4.05m4.05 0h4.04m4.05 0h4.03m4.05 0H854l.94.06.9.22.23.1m3.15 2.68l.13.2.36.87.23.93v2.1m0 4.17v4.18m0 4.18v4.18m.02 4.18v4.18m0 4.18v4.18m0 4.18v4.18m.02 4.18v4.18m0 4.18v4.18m0 4.18l.02 4.18m0 4.18v4.18m0 4.18v2.1l-.07.93-.22.92-.08.2m-2.7 3.16l-.2.12-.87.36-.9.22h-2.03m-4.05 0h-4.04m-4.05 0h-4.05m-4.04 0h-4.06m-4.04 0h-4.05m-4.04 0h-4.04m-4.04.02h-4.05m-4.04 0h-4.05m-4.05 0h-4.04m-4.06 0h-4.04m-4.05 0H772m-4.04 0h-4.04m-4.05 0l-4.04.02m-4.05 0h-4.05m-4.04 0h-4.06m-4.04 0h-4.05m-4.04 0h-4.04m-4.04 0h-4.05m-4.04 0h-4.05m-4.05 0l-4.04.02m-4.06 0h-4.04m-4.05 0H683m-4.04 0h-4.04m-4.05 0h-4.04m-4.05 0h-4.05m-4.04 0h-2.03l-.94-.06-.92-.22-.2-.1m-3.16-2.68l-.12-.2-.36-.87-.22-.93v-2.1m0-4.17v-4.18m0-4.18l-.02-4.18m0-4.18v-4.18m0-4.18v-4.18m0-4.18l-.02-4.18m0-4.18v-4.18m0-4.18v-4.18m-.02-4.18v-4.18m0-4.18v-4.18m0-4.18v-2.1l.06-.93.22-.92.1-.2m20.94-3.93v1.97m0 3.94v3.95m0 3.94v3.95m0 3.94v3.95m0 3.95v3.94m0 3.94v3.94m0 3.95v3.94m0 3.95v3.94m0 3.95v3.95m0 3.94v3.94m0 3.94v3.95m0 3.94v3.95m0 3.94v1.97M646.67 1027h1.97m3.95 0h3.94m3.95 0h3.94m3.96 0h3.95m3.95 0h3.95m3.95 0h3.95m3.95 0h3.95m3.95 0h3.95m3.95 0h3.95m3.95 0h3.95m3.95 0h3.95m3.95 0h3.96m3.95 0h3.96m3.95 0h3.96m3.95 0h3.96m3.95 0h3.96m3.95 0h3.96m3.95 0h3.96m3.95 0h3.96m3.95 0h3.97m3.95 0h3.95m3.95 0h3.95m3.95 0h3.95m3.95 0h3.95m3.95 0h3.95m3.95 0h3.95m3.95 0h3.95m3.95 0H860" stroke="#3a414a" fill="none"/><use xlink:href="#c" transform="matrix(1,0,0,1,680.0000000000001,1039) translate(7.796296296296305 30.27777777777778)"/><use xlink:href="#i" transform="matrix(1,0,0,1,680.0000000000001,1039) translate(115.75925925925927 30.27777777777778)"/><path d="M1211.03 803.03a8.85 8.85 0 0 1 9.94 0l142.06 96.27a4.07 4.07 0 0 1 0 6.73l-142.06 96.27a8.85 8.85 0 0 1-9.94 0l-142.06-96.27a4.07 4.07 0 0 1 0-6.73z" fill="#fff"/><path d="M1217.83 801.7l.26.06 1 .3.96.43 1.63 1.1m3.23 2.2l3.25 2.2m3.25 2.2l3.25 2.2m3.25 2.2l3.25 2.2m3.25 2.2l3.25 2.2m3.25 2.2l3.25 2.2m3.25 2.2l3.25 2.2m3.25 2.2l3.25 2.2m3.25 2.2l3.25 2.2m3.24 2.2l3.25 2.2m3.25 2.2l3.25 2.2m3.25 2.2l3.25 2.2m3.25 2.2l3.25 2.2m3.25 2.2l3.25 2.2m3.25 2.2l3.25 2.2m3.25 2.2l3.25 2.2m3.25 2.2l3.25 2.2m3.24 2.2l3.26 2.2m3.25 2.2l3.26 2.2m3.25 2.2l3.26 2.2m3.25 2.2l3.26 2.2m3.25 2.2l3.26 2.2m3.25 2.2l1.63 1.1.6.5.5.62.1.18m.34 3.42l-.06.2-.36.7-.5.6-1.62 1.1m-3.24 2.2l-3.24 2.2m-3.25 2.2l-3.25 2.2m-3.24 2.2l-3.23 2.2m-3.25 2.2l-3.24 2.2m-3.24 2.2l-3.25 2.2m-3.25 2.2l-3.24 2.2m-3.23 2.2l-3.25 2.2m-3.24 2.2l-3.24 2.2m-3.24 2.2l-3.25 2.2m-3.24 2.2l-3.23 2.2m-3.24 2.2l-3.25 2.2m-3.24 2.2l-3.24 2.2m-3.24 2.2l-3.25 2.2m-3.23 2.2l-3.24 2.2m-3.25 2.2l-3.24 2.2m-3.24 2.2l-3.24 2.2m-3.25 2.2l-3.23 2.2m-3.24 2.2l-3.24 2.2m-3.26 2.18l-3.24 2.2m-3.24 2.2l-3.24 2.2m-3.25 2.2l-3.24 2.2m-3.24 2.2l-1.63 1.1-.9.54-.97.43-.25.07m-4.68.28l-.26-.04-1-.3-.96-.44-1.63-1.1m-3.23-2.2l-3.25-2.2m-3.25-2.2l-3.25-2.2m-3.25-2.2l-3.25-2.2m-3.25-2.2l-3.25-2.2m-3.25-2.2l-3.25-2.2m-3.25-2.2l-3.25-2.2m-3.25-2.2l-3.25-2.2m-3.25-2.2l-3.25-2.2m-3.24-2.2l-3.25-2.2m-3.25-2.2l-3.25-2.2m-3.25-2.2l-3.25-2.2m-3.25-2.2l-3.25-2.2m-3.25-2.2l-3.25-2.2m-3.25-2.2l-3.25-2.2m-3.25-2.2l-3.25-2.2m-3.25-2.2l-3.25-2.2m-3.24-2.2l-3.26-2.2m-3.25-2.2l-3.26-2.2m-3.25-2.2l-3.26-2.2m-3.25-2.2l-3.26-2.2m-3.25-2.2l-3.26-2.2m-3.25-2.2l-1.63-1.1-.6-.5-.5-.63-.1-.16m-.34-3.43l.06-.18.36-.7.5-.6 1.62-1.1m3.24-2.2l3.24-2.2m3.25-2.2l3.25-2.2m3.24-2.2l3.23-2.2m3.25-2.2l3.24-2.2m3.24-2.2l3.25-2.2m3.25-2.2l3.24-2.2m3.23-2.2l3.25-2.2m3.24-2.2l3.24-2.2m3.24-2.2l3.25-2.2m3.24-2.2l3.23-2.2m3.24-2.2l3.25-2.2m3.24-2.2l3.24-2.2m3.24-2.2l3.25-2.2m3.23-2.2l3.24-2.2m3.25-2.2l3.24-2.2m3.24-2.2l3.24-2.2m3.25-2.2l3.23-2.2m3.24-2.2l3.24-2.2m3.26-2.2l3.24-2.2m3.24-2.2l3.24-2.2m3.25-2.2l3.24-2.2m3.24-2.2l1.63-1.1.9-.53.97-.43.25-.08" stroke="#3a414a" fill="none"/><use xlink:href="#e" transform="matrix(1,0,0,1,1069,804.6666666666664) translate(68.09141975308643 108.47569444444443)"/><use xlink:href="#j" transform="matrix(1,0,0,1,1069,804.6666666666664) translate(182.56055555555554 108.47569444444443)"/><path d="M1109.33 1011.67a6 6 0 0 1 6-6h201.34a6 6 0 0 1 6 6v82.66a6 6 0 0 1-6 6h-201.34a6 6 0 0 1-6-6zm21.34-6v94.66m-21.34-73.33h213.34" fill="#fff"/><path d="M1112.4 1006.44l.2-.12.88-.36.9-.22h2.04m4.04 0h4.05m4.05 0h4.05m4.04 0h4.05m4.04 0h4.04m4.05 0h4.04m4.05-.02h4.04m4.05 0h4.05m4.05 0h4.04m4.05 0h4.04m4.04 0h4.05m4.04 0h4.05m4.04 0l4.05-.02m4.05 0h4.05m4.04 0h4.05m4.04 0h4.04m4.05 0h4.04m4.05 0h4.04m4.05 0h4.05m4.05 0l4.04-.02m4.05 0h4.03m4.05 0h4.05m4.04 0h4.05m4.04 0h4.05m4.05 0h4.05m4.04 0h2.03l.94.06.92.22.22.1m3.15 2.68l.1.2.37.87.22.93v2.1m0 4.17v4.18m0 4.18v4.18m0 4.18l.02 4.18m0 4.18v4.18m0 4.18v4.18m.02 4.18v4.18m0 4.18v4.18m0 4.18v4.18m.02 4.18v4.18m0 4.18v2.1l-.07.93-.23.92-.1.2m-2.68 3.16l-.2.12-.88.36-.9.22h-2.04m-4.04 0h-4.05m-4.05 0h-4.05m-4.04 0h-4.05m-4.04 0h-4.04m-4.05 0h-4.04m-4.05.02h-4.04m-4.05 0h-4.05m-4.05 0h-4.04m-4.05 0h-4.04m-4.04 0h-4.05m-4.04 0h-4.05m-4.04 0l-4.05.02m-4.05 0h-4.05m-4.04 0h-4.05m-4.04 0h-4.04m-4.05 0h-4.04m-4.05 0h-4.04m-4.05 0h-4.05m-4.05 0l-4.04.02m-4.05 0h-4.03m-4.05 0h-4.05m-4.04 0h-4.05m-4.04 0h-4.05m-4.05 0h-4.05m-4.04 0h-2.03l-.94-.06-.92-.22-.22-.1m-3.15-2.68l-.1-.2-.37-.87-.22-.93v-2.1m0-4.17v-4.18m0-4.18v-4.18m0-4.18l-.02-4.18m0-4.18v-4.18m0-4.18v-4.18m-.02-4.18v-4.18m0-4.18v-4.18m0-4.18v-4.18m-.02-4.18v-4.18m0-4.18v-2.1l.07-.93.23-.92.1-.2m20.94-3.93v1.97m0 3.94v3.95m0 3.94v3.95m0 3.94v3.95m0 3.95v3.94m0 3.94v3.94m0 3.95v3.94m0 3.95v3.94m0 3.95v3.95m0 3.94v3.94m0 3.94v3.95m0 3.94v3.95m0 3.94v1.97m-21.34-73.33h1.98m3.96 0h3.95m3.96 0h3.95m3.96 0h3.95m3.96 0h3.95m3.96 0h3.95m3.97 0h3.95m3.95 0h3.95m3.95 0h3.95m3.95 0h3.95m3.95 0h3.95m3.95 0h3.95m3.95 0h3.95m3.95 0h3.95m3.96 0h3.95m3.95 0h3.95m3.95 0h3.95m3.95 0h3.95m3.95 0h3.95m3.95 0h3.95m3.95 0h3.95m3.95 0h3.95m3.96 0h3.94m3.95 0h3.94m3.95 0h3.94m3.95 0h3.94m3.95 0h3.94m3.95 0h1.97" stroke="#3a414a" fill="none"/><use xlink:href="#c" transform="matrix(1,0,0,1,1142.6666666666665,1038.9999999999998) translate(7.796296296296305 30.27777777777778)"/><use xlink:href="#k" transform="matrix(1,0,0,1,1142.6666666666665,1038.9999999999998) translate(115.75925925925927 30.27777777777778)"/><path d="M381.87 78.67c33.58 0 60.8 30.74 60.8 68.66 0 37.93-27.22 68.67-60.8 68.67h-182.4c-33.58 0-60.8-30.74-60.8-68.67 0-37.92 27.22-68.66 60.8-68.66z" stroke="#3a414a" fill="#fff"/><use xlink:href="#l" transform="matrix(1,0,0,1,143.66666666666677,83.66666666670511) translate(111.44444444444446 72.44444444444443)"/><path d="M184 222a6 6 0 0 1 6-6h201.33a6 6 0 0 1 6 6v82.67a6 6 0 0 1-6 6H190a6 6 0 0 1-6-6zm21.33-6v94.67M184 237.33h213.33" stroke="#3a414a" fill="#fff"/><use xlink:href="#c" transform="matrix(1,0,0,1,217.33333333333343,249.33333333337188) translate(7.796296296296305 30.27777777777778)"/><use xlink:href="#d" transform="matrix(1,0,0,1,217.33333333333343,249.33333333337188) translate(115.75925925925927 30.27777777777778)"/><path d="M1307.2 78.67c33.58 0 60.8 30.74 60.8 68.66 0 37.93-27.22 68.67-60.8 68.67h-182.4c-33.58 0-60.8-30.74-60.8-68.67 0-37.92 27.22-68.66 60.8-68.66z" stroke="#3a414a" fill="#fff"/><use xlink:href="#m" transform="matrix(1,0,0,1,1069,83.66666666670511) translate(111.44444444444446 72.44444444444443)"/><path d="M1109.33 222a6 6 0 0 1 6-6h201.34a6 6 0 0 1 6 6v82.67a6 6 0 0 1-6 6h-201.34a6 6 0 0 1-6-6zm21.34-6v94.67m-21.34-73.34h213.34" stroke="#3a414a" fill="#fff"/><use xlink:href="#c" transform="matrix(1,0,0,1,1142.6666666666665,249.33333333337188) translate(7.796296296296305 30.27777777777778)"/><use xlink:href="#n" transform="matrix(1,0,0,1,1142.6666666666665,249.33333333337188) translate(115.75925925925927 30.27777777777778)"/><path d="M1211.03 417.7a8.85 8.85 0 0 1 9.94 0l142.06 96.27a4.07 4.07 0 0 1 0 6.73l-142.06 96.27a8.85 8.85 0 0 1-9.94 0l-142.06-96.27a4.07 4.07 0 0 1 0-6.73z" fill="#fff"/><path d="M1217.83 416.38l.26.04 1 .3.96.44 1.63 1.1m3.23 2.2l3.25 2.2m3.25 2.2l3.25 2.2m3.25 2.2l3.25 2.2m3.25 2.2l3.25 2.2m3.25 2.2l3.25 2.2m3.25 2.2l3.25 2.2m3.25 2.2l3.25 2.2m3.25 2.2l3.25 2.2m3.24 2.2l3.25 2.2m3.25 2.2l3.25 2.2m3.25 2.2l3.25 2.2m3.25 2.2l3.25 2.2m3.25 2.2l3.25 2.2m3.25 2.2l3.25 2.2m3.25 2.2l3.25 2.2m3.25 2.2l3.25 2.2m3.24 2.2l3.26 2.2m3.25 2.2l3.26 2.2m3.25 2.2l3.26 2.2m3.25 2.2l3.26 2.2m3.25 2.2l3.26 2.2m3.25 2.2l1.63 1.1.6.5.5.63.1.16m.34 3.43l-.06.18-.36.7-.5.6-1.62 1.1m-3.24 2.2l-3.24 2.2m-3.25 2.2l-3.25 2.2m-3.24 2.2l-3.23 2.2m-3.25 2.2l-3.24 2.2m-3.24 2.2l-3.25 2.2m-3.25 2.2l-3.24 2.2m-3.23 2.2l-3.25 2.2m-3.24 2.2l-3.24 2.2m-3.24 2.2l-3.25 2.2m-3.24 2.2l-3.23 2.2m-3.24 2.2l-3.25 2.2m-3.24 2.2l-3.24 2.2m-3.24 2.2l-3.25 2.2m-3.23 2.2l-3.24 2.2m-3.25 2.2l-3.24 2.2m-3.24 2.2l-3.24 2.2m-3.25 2.2l-3.23 2.2m-3.24 2.2l-3.24 2.2m-3.26 2.2l-3.24 2.2m-3.24 2.2l-3.24 2.2m-3.25 2.2l-3.24 2.2m-3.24 2.2l-1.63 1.1-.9.53-.97.43-.25.08m-4.68.3l-.26-.06-1-.3-.96-.43-1.63-1.1m-3.23-2.2l-3.25-2.2m-3.25-2.2l-3.25-2.2m-3.25-2.2l-3.25-2.2m-3.25-2.2l-3.25-2.2m-3.25-2.2l-3.25-2.2m-3.25-2.2l-3.25-2.2m-3.25-2.2l-3.25-2.2m-3.25-2.2l-3.25-2.2m-3.24-2.2l-3.25-2.2m-3.25-2.2l-3.25-2.2m-3.25-2.2l-3.25-2.2m-3.25-2.2l-3.25-2.2m-3.25-2.2l-3.25-2.2m-3.25-2.2l-3.25-2.2m-3.25-2.2l-3.25-2.2m-3.25-2.2l-3.25-2.2m-3.24-2.2l-3.26-2.2m-3.25-2.2l-3.26-2.2m-3.25-2.2l-3.26-2.2m-3.25-2.2l-3.26-2.2m-3.25-2.2l-3.26-2.2m-3.25-2.2l-1.63-1.1-.6-.5-.5-.62-.1-.18m-.34-3.42l.06-.2.36-.7.5-.6 1.62-1.1m3.24-2.2l3.24-2.2m3.25-2.2l3.25-2.2m3.24-2.2l3.23-2.2m3.25-2.2l3.24-2.2m3.24-2.2l3.25-2.2m3.25-2.2l3.24-2.2m3.23-2.2l3.25-2.2m3.24-2.2l3.24-2.2m3.24-2.2l3.25-2.2m3.24-2.2l3.23-2.2m3.24-2.2l3.25-2.2m3.24-2.2l3.24-2.2m3.24-2.2l3.25-2.2m3.23-2.2l3.24-2.2m3.25-2.2l3.24-2.2m3.24-2.2l3.24-2.2m3.25-2.2l3.23-2.2m3.24-2.2l3.24-2.2m3.26-2.18l3.24-2.2m3.24-2.2l3.24-2.2m3.25-2.2l3.24-2.2m3.24-2.2l1.63-1.1.9-.54.97-.43.25-.07" stroke="#3a414a" fill="none"/><use xlink:href="#e" transform="matrix(1,0,0,1,1069,419.3333333333333) translate(68.09141975308643 108.47569444444443)"/><use xlink:href="#b" transform="matrix(1,0,0,1,1069,419.3333333333333) translate(182.56055555555554 108.47569444444443)"/><path d="M1116 620.08a6 6 0 0 1 6-6h201.33a6 6 0 0 1 6 6v82.67a6 6 0 0 1-6 6H1122a6 6 0 0 1-6-6zm21.33-6v94.67M1116 635.42h213.33" fill="#fff"/><path d="M1119.08 614.86l.2-.12.87-.36.9-.22h2.03m4.05 0h4.04m4.05 0h4.05m4.04 0h4.06m4.04 0h4.05m4.04-.02h4.04m4.04 0h4.05m4.04 0h4.05m4.05 0h4.04m4.06 0h4.04m4.05 0h4.04m4.04 0l4.04-.02m4.05 0h4.04m4.05 0h4.05m4.04 0h4.06m4.04 0h4.05m4.04 0h4.04m4.04 0h4.05m4.04 0l4.05-.02m4.05 0h4.04m4.06 0h4.04m4.05 0h4.04m4.04 0h4.04m4.05 0h4.04m4.05 0h4.05m4.04-.02h2.03l.94.08.92.22.2.1m3.16 2.68l.12.2.36.87.22.92v2.1m0 4.17v4.18m0 4.18l.02 4.18m0 4.18v4.18m0 4.18v4.18m0 4.18l.02 4.18m0 4.18v4.18m0 4.18v4.18m.02 4.18v4.18m0 4.18v4.18m0 4.18v2.1l-.06.93-.22.9-.1.22m-2.68 3.15l-.2.13-.87.36-.93.22h-2.02m-4.05 0h-4.04m-4.05 0h-4.03m-4.05 0h-4.04m-4.05 0h-4.04m-4.06 0h-4.05m-4.05 0l-4.05.02m-4.04 0h-4.05m-4.03 0h-4.05m-4.04 0h-4.05m-4.04 0h-4.06m-4.04 0h-4.05m-4.05 0h-4.04m-4.05 0l-4.03.02m-4.05 0h-4.04m-4.05 0h-4.04m-4.06 0h-4.04m-4.05 0h-4.05m-4.04 0h-4.05m-4.03 0h-4.05m-4.04.02h-4.05m-4.04 0h-4.06m-4.04 0h-4.05m-4.05 0h-4.04m-4.05 0h-4.03m-4.05 0H1122l-.94-.06-.9-.22-.23-.1m-3.15-2.68l-.13-.2-.36-.88-.23-.9v-2.1m0-4.18v-4.18m0-4.18v-4.18m-.02-4.18v-4.18m0-4.18v-4.18m0-4.18v-4.18m-.02-4.18v-4.18m0-4.18v-4.18m0-4.18l-.02-4.2m0-4.17v-4.18m0-4.18v-2.1l.07-.92.22-.92.08-.22m20.95-3.92v1.98m0 3.94v3.95m0 3.94v3.93m0 3.95v3.94m0 3.95v3.94m0 3.96v3.94m0 3.95v3.94m0 3.93v3.95m0 3.94v3.95m0 3.94v3.96m0 3.94v3.95m0 3.94v3.93m0 3.95v1.97M1116 635.42h1.98m3.95 0h3.95m3.95 0h3.95m3.95 0h3.95m3.95 0h3.95m3.95 0h3.95m3.95 0h3.95m3.95 0h3.95m3.95 0h3.96m3.94 0h3.95m3.94 0h3.95m3.94 0h3.95m3.94 0h3.95m3.94 0h3.95m3.94 0h3.95m3.94 0h3.95m3.94 0h3.96m3.95 0h3.95m3.95 0h3.95m3.95 0h3.95m3.95 0h3.95m3.95 0h3.95m3.95 0h3.95m3.95 0h3.95m3.95 0h3.95m3.96 0h3.95m3.96 0h3.95m3.96 0h1.97" stroke="#3a414a" fill="none"/><use xlink:href="#c" transform="matrix(1,0,0,1,1149.3333333333333,647.4173228346456) translate(7.796296296296305 30.27777777777778)"/><use xlink:href="#n" transform="matrix(1,0,0,1,1149.3333333333333,647.4173228346456) translate(115.75925925925927 30.27777777777778)"/><path d="M446.17 147.33h590.36" stroke="#3a414a" stroke-width="6" fill="none"/><path d="M446.24 150.33h-3.18l.1-3-.06-3h3.14z" stroke="#3a414a" stroke-width=".05" fill="#3a414a"/><path d="M1053.8 147.33l-14.27 4.64v-9.27z" stroke="#3a414a" stroke-width="6" fill="#3a414a"/><path d="M290.67 311.63v1.46m0 1.94v2.92m0 1.95v2.93m0 1.95v2.92m0 1.95v2.92m0 1.95v2.92m0 1.95v2.9m0 1.96v2.92m0 1.95v2.92m0 1.95v2.92m0 1.95v2.92m0 1.94v2.92m0 1.95v2.93m0 1.95v2.92m0 1.95v2.92m0 1.95v2.92m0 1.95v2.9m0 1.96v2.92m0 1.95v1.46" stroke="#3a414a" fill="none"/><path d="M291.17 311.64h-1v-.5h1z" stroke="#3a414a" stroke-width=".05" fill="#3a414a"/><path d="M290.67 414.06l-4.64-14.27h9.27z" stroke="#3a414a" fill="#fff"/><path d="M290.67 709.7v1.5m0 2v3m0 2v3m0 2v3m0 2v3m0 2v2.98m0 2v3m0 2v3m0 2v2.98m0 2v3m0 2v3m0 2v3m0 1.98v3m0 2v3m0 2v3m0 2v1.48" stroke="#3a414a" fill="none"/><path d="M291.17 709.73h-1v-.52h1z" stroke="#3a414a" stroke-width=".05" fill="#3a414a"/><path d="M290.67 799.4l-4.64-14.28h9.27z" stroke="#3a414a" fill="#fff"/><path d="M440.5 902.67h1.5m2.04 0h3.04m2.03 0h3.06m2.03 0h3.03m2.03 0h3.04m2.03 0h3.05m2.03 0h3.05m2.03 0h3.05m2.03 0h3.04m2.03 0h3.04m2.03 0h3.05m2.03 0h3.04m2.03 0h3.05m2.03 0h3.04m2.03 0h3.04m2.03 0h3.05m2.03 0h3.04m2.02 0h3.04m2.03 0h3.04m2.03 0h3.04m2.04 0h3.05m2.02 0h3.04m2.03 0h3.03m2.03 0h3.05m2.04 0h3.04m2.03 0h3.06m2.03 0h3.03m2.03 0H579m2.03 0h3.05m2.03 0h1.53" stroke="#3a414a" fill="none"/><path d="M440.5 903.17h-.56l.05-.5-.06-.5h.56z" stroke="#3a414a" stroke-width=".05" fill="#3a414a"/><path d="M602.4 902.67l-14.27 4.63v-9.27z" stroke="#3a414a" fill="#fff"/><path d="M902.93 904h1.48m1.98 0h2.95m1.97 0h2.95m1.96 0h2.97m1.96 0h2.96m1.95 0H929m1.97 0h2.95m1.97 0h2.94m1.97 0h2.96m1.97 0h2.95m1.97 0h2.95m1.97 0h2.95m1.97 0h2.94m1.97 0h2.96m1.97 0h2.95m1.97 0h2.95m1.97 0h2.95m1.97 0h2.94m1.97 0h2.96m1.97 0h2.95m1.97 0h2.95m1.97 0h2.95m1.97 0h2.94m1.96 0h2.96m1.96 0h2.96m1.96 0h2.96m1.96 0h2.96m1.96 0h2.95m1.97 0h2.95m1.97 0h2.95m1.97 0h1.48" stroke="#3a414a" fill="none"/><path d="M902.94 904.5h-.68l.05-.1.27-.85v-.05h.37z" stroke="#3a414a" stroke-width=".05" fill="#3a414a"/><path d="M1065.28 904l-14.26 4.64v-9.28z" stroke="#3a414a" fill="#fff"/><path d="M1216 800.5V799m0-2v-2.98m0-2v-3m0-2v-3m0-2v-3m0-1.98v-3m0-2v-3m0-2v-3m0-2v-2.98m0-2v-3m0-2v-3m0-2v-2.98m0-2v-3m0-2v-3m0-2v-2.98m0-2v-1.5" stroke="#3a414a" fill="none"/><path d="M1216.5 801.04l-.5-.03-.5.04v-.55h1z" stroke="#3a414a" stroke-width=".05" fill="#3a414a"/><path d="M1216 710.83l4.64 14.27h-9.28z" stroke="#3a414a" fill="#fff"/><path d="M1216 415.17v-1.46m0-1.94v-2.92m0-1.95v-2.93m0-1.95v-2.92m0-1.95v-2.92m0-1.95v-2.92m0-1.95v-2.9m0-1.96v-2.92m0-1.95v-2.92m0-1.95v-2.92m0-1.95V365m0-1.94v-2.92m0-1.95v-2.93m0-1.95v-2.92m0-1.95v-2.92m0-1.95v-2.92m0-1.95v-2.9m0-1.96v-2.92m0-1.95v-1.46" stroke="#3a414a" fill="none"/><path d="M1216.5 415.7l-.5-.03-.5.03v-.54h1z" stroke="#3a414a" stroke-width=".05" fill="#3a414a"/><path d="M1216 312.75l4.64 14.26h-9.28z" stroke="#3a414a" fill="#fff"/><defs><path fill="#3a414a" d="M147-93v79l38 5v9H76v-9l37-5v-78L31-222l-27-4v-10h100v10l-32 4 68 109 64-109-30-4v-10h77v10l-26 4" id="o"/><path fill="#3a414a" d="M24-231c66-21 156 2 128 81C132-92 78-66 39-27h121V0H16v-26l59-54c26-25 47-47 47-97 0-48-47-57-81-37l-6 29H24v-46" id="p"/><path fill="#3a414a" d="M90-239c59 0 76 52 76 120S152 4 89 4C31 4 14-51 14-119c0-67 17-120 76-120zM89-10c45-6 45-58 45-109 0-50 0-101-45-106-45 4-43 57-43 106 0 50-2 104 43 109" id="q"/><path fill="#3a414a" d="M42-37c43 0 23 74-4 81-7 4-14 8-24 11V42c17-5 29-14 31-30C42-2 20 1 21-18c0-12 9-19 21-19" id="r"/><g id="a"><use transform="matrix(0.0987654320987654,0,0,0.0987654320987654,0,0)" xlink:href="#o"/><use transform="matrix(0.0987654320987654,0,0,0.0987654320987654,25.58024691358024,0)" xlink:href="#p"/><use transform="matrix(0.0987654320987654,0,0,0.0987654320987654,43.35802469135801,0)" xlink:href="#q"/><use transform="matrix(0.0987654320987654,0,0,0.0987654320987654,61.13580246913578,0)" xlink:href="#p"/><use transform="matrix(0.0987654320987654,0,0,0.0987654320987654,78.91358024691355,0)" xlink:href="#q"/><use transform="matrix(0.0987654320987654,0,0,0.0987654320987654,96.69135802469133,0)" xlink:href="#r"/></g><path fill="#3a414a" d="M130-224c-62 0-78 43-78 106 0 64 16 108 78 108s78-44 78-108c0-63-16-106-78-106zM145 3C61 9 15-34 15-118c0-80 37-120 115-120 77 0 115 42 115 120 1 59-21 95-62 112 19 19 30 53 71 46v12c-30 12-67 2-84-19" id="s"/><path fill="#3a414a" d="M142-52V0h-30v-52H7v-23l115-162h20v160h32v25h-32zm-30-25l-1-119L27-77h85" id="t"/><g id="b"><use transform="matrix(0.0987654320987654,0,0,0.0987654320987654,0,0)" xlink:href="#s"/><use transform="matrix(0.0987654320987654,0,0,0.0987654320987654,25.58024691358024,0)" xlink:href="#t"/></g><path fill="#3a414a" d="M75-108c48 3 76-12 76-58s-28-57-76-54v112zm111-58c-1 60-46 78-111 74v78l37 5v9H13v-9l28-5v-208l-31-4v-10c81 1 178-14 176 70" id="u"/><path fill="#3a414a" d="M90-170c52 0 76 32 76 87 0 54-24 87-77 87-51 0-75-34-75-87 0-54 24-87 76-87zM89-10c39 0 46-35 46-73 0-39-7-73-46-73-39 1-44 34-44 73s6 72 44 73" id="v"/><path fill="#3a414a" d="M166-85c3 67-44 102-111 85l1 64 29 4v9H6v-9l21-4v-217c-7-3-22 1-19-12h46l1 9c11-8 26-14 45-14 47 2 64 36 66 85zM56-13c53 14 83-14 78-72 7-53-33-79-78-60v132" id="w"/><path fill="#3a414a" d="M124-13C89 8 26 15 26-45v-108c-8-3-24 2-21-12h50v118c-3 37 42 32 69 25v-131l-25-4v-8h54v153c8 3 24-2 21 12h-48" id="x"/><path fill="#3a414a" d="M65-12l28 4v8H7v-8l28-4v-226l-28-4v-8h58v238" id="y"/><path fill="#3a414a" d="M32-163c41-10 102-14 102 39v112c8 3 24-2 21 12h-45l-4-17C83 13 3 13 13-46c-2-50 45-50 92-51 4-36-5-70-42-56-6 2-12 4-16 6-4 7 0 23-15 20v-36zM42-47c0 41 41 33 63 22v-59c-34 1-63-1-63 37" id="z"/><path fill="#3a414a" d="M54-38c-1 25 24 26 44 20v12C71 10 25 9 25-35v-115H4c-2-14 14-10 21-15l18-38h11v38h38v15H54v112" id="A"/><path fill="#3a414a" d="M47-200c-23 0-25-39 0-38 13 0 18 7 20 19-1 11-8 19-20 19zM65-12l28 4v8H8v-8l28-4v-141l-24-4v-8h53v153" id="B"/><path fill="#3a414a" d="M125-118c4-37-41-34-68-26v132l23 4v8H8C5-13 21-9 28-12v-141c-7-3-23 1-20-12h47l2 13c31-23 98-29 98 31v109c7 3 23-1 20 12h-72v-8l22-4v-106" id="C"/><path fill="#3a414a" d="M50-37c14 0 21 9 21 21S62 5 50 5C37 5 28-4 28-16s8-21 22-21zm0-132c12 0 21 9 21 21 0 13-9 22-21 22-13 0-22-9-22-22 0-12 9-21 22-21" id="D"/><g id="c"><use transform="matrix(0.06172839506172839,0,0,0.06172839506172839,0,0)" xlink:href="#u"/><use transform="matrix(0.06172839506172839,0,0,0.06172839506172839,12.345679012345679,0)" xlink:href="#v"/><use transform="matrix(0.06172839506172839,0,0,0.06172839506172839,23.45679012345679,0)" xlink:href="#w"/><use transform="matrix(0.06172839506172839,0,0,0.06172839506172839,34.5679012345679,0)" xlink:href="#x"/><use transform="matrix(0.06172839506172839,0,0,0.06172839506172839,45.67901234567901,0)" xlink:href="#y"/><use transform="matrix(0.06172839506172839,0,0,0.06172839506172839,51.851851851851855,0)" xlink:href="#z"/><use transform="matrix(0.06172839506172839,0,0,0.06172839506172839,61.66666666666667,0)" xlink:href="#A"/><use transform="matrix(0.06172839506172839,0,0,0.06172839506172839,67.8395061728395,0)" xlink:href="#B"/><use transform="matrix(0.06172839506172839,0,0,0.06172839506172839,74.01234567901234,0)" xlink:href="#v"/><use transform="matrix(0.06172839506172839,0,0,0.06172839506172839,85.12345679012346,0)" xlink:href="#C"/><use transform="matrix(0.06172839506172839,0,0,0.06172839506172839,96.23456790123457,0)" xlink:href="#D"/></g><path fill="#3a414a" d="M110-14l48 5v9H32v-9l48-5v-192l-48 17v-10l69-39h9v224" id="E"/><path fill="#3a414a" d="M48-126c45-28 121-18 121 53 0 50-25 77-72 77-63 0-80-54-82-120-3-88 52-142 140-116v40h-12c2-42-66-39-79-8-8 20-16 43-16 74zm0 11c2 50 2 105 49 105 33 0 37-26 40-60 5-60-49-61-89-45" id="F"/><g id="d"><use transform="matrix(0.06172839506172839,0,0,0.06172839506172839,0,0)" xlink:href="#E"/><use transform="matrix(0.06172839506172839,0,0,0.06172839506172839,11.11111111111111,0)" xlink:href="#F"/><use transform="matrix(0.06172839506172839,0,0,0.06172839506172839,22.22222222222222,0)" xlink:href="#q"/><use transform="matrix(0.06172839506172839,0,0,0.06172839506172839,33.33333333333333,0)" xlink:href="#q"/></g><g id="e"><use transform="matrix(0.0987654320987654,0,0,0.0987654320987654,0,0)" xlink:href="#o"/><use transform="matrix(0.0987654320987654,0,0,0.0987654320987654,25.58024691358024,0)" xlink:href="#p"/><use transform="matrix(0.0987654320987654,0,0,0.0987654320987654,43.35802469135801,0)" xlink:href="#q"/><use transform="matrix(0.0987654320987654,0,0,0.0987654320987654,61.13580246913578,0)" xlink:href="#p"/><use transform="matrix(0.0987654320987654,0,0,0.0987654320987654,78.91358024691355,0)" xlink:href="#E"/><use transform="matrix(0.0987654320987654,0,0,0.0987654320987654,96.69135802469133,0)" xlink:href="#r"/></g><g id="f"><use transform="matrix(0.0987654320987654,0,0,0.0987654320987654,0,0)" xlink:href="#s"/><use transform="matrix(0.0987654320987654,0,0,0.0987654320987654,25.58024691358024,0)" xlink:href="#E"/></g><path fill="#3a414a" d="M134-68c4-52-44-63-88-51H29v-117h119v27H45v75c60-10 121-2 121 64C166 3 87 15 23-4l-2-50h12c1 28 14 43 47 43 39 0 51-20 54-57" id="G"/><g id="g"><use transform="matrix(0.06172839506172839,0,0,0.06172839506172839,0,0)" xlink:href="#E"/><use transform="matrix(0.06172839506172839,0,0,0.06172839506172839,11.11111111111111,0)" xlink:href="#F"/><use transform="matrix(0.06172839506172839,0,0,0.06172839506172839,22.22222222222222,0)" xlink:href="#G"/><use transform="matrix(0.06172839506172839,0,0,0.06172839506172839,33.33333333333333,0)" xlink:href="#q"/></g><g id="h"><use transform="matrix(0.0987654320987654,0,0,0.0987654320987654,0,0)" xlink:href="#s"/><use transform="matrix(0.0987654320987654,0,0,0.0987654320987654,25.58024691358024,0)" xlink:href="#p"/></g><path fill="#3a414a" d="M35-180H24v-56h146v14L65 0H42l103-209H41" id="H"/><g id="i"><use transform="matrix(0.06172839506172839,0,0,0.06172839506172839,0,0)" xlink:href="#E"/><use transform="matrix(0.06172839506172839,0,0,0.06172839506172839,11.11111111111111,0)" xlink:href="#H"/><use transform="matrix(0.06172839506172839,0,0,0.06172839506172839,22.22222222222222,0)" xlink:href="#q"/><use transform="matrix(0.06172839506172839,0,0,0.06172839506172839,33.33333333333333,0)" xlink:href="#q"/></g><path fill="#3a414a" d="M104-123c39 3 61 21 62 59C167 7 83 12 19-4l-2-50h12c2 29 16 43 51 43 38 0 54-19 54-55 2-43-34-49-75-50v-14c37 0 64-7 64-48 0-47-47-56-81-36l-6 29H24v-46c51-13 135-13 131 51-2 34-20 52-51 57" id="I"/><g id="j"><use transform="matrix(0.0987654320987654,0,0,0.0987654320987654,0,0)" xlink:href="#s"/><use transform="matrix(0.0987654320987654,0,0,0.0987654320987654,25.58024691358024,0)" xlink:href="#I"/></g><g id="k"><use transform="matrix(0.06172839506172839,0,0,0.06172839506172839,0,0)" xlink:href="#E"/><use transform="matrix(0.06172839506172839,0,0,0.06172839506172839,11.11111111111111,0)" xlink:href="#H"/><use transform="matrix(0.06172839506172839,0,0,0.06172839506172839,22.22222222222222,0)" xlink:href="#G"/><use transform="matrix(0.06172839506172839,0,0,0.06172839506172839,33.33333333333333,0)" xlink:href="#q"/></g><g id="l"><use transform="matrix(0.0987654320987654,0,0,0.0987654320987654,0,0)" xlink:href="#p"/><use transform="matrix(0.0987654320987654,0,0,0.0987654320987654,17.77777777777777,0)" xlink:href="#q"/><use transform="matrix(0.0987654320987654,0,0,0.0987654320987654,35.55555555555554,0)" xlink:href="#p"/><use transform="matrix(0.0987654320987654,0,0,0.0987654320987654,53.333333333333314,0)" xlink:href="#q"/></g><g id="m"><use transform="matrix(0.0987654320987654,0,0,0.0987654320987654,0,0)" xlink:href="#p"/><use transform="matrix(0.0987654320987654,0,0,0.0987654320987654,17.77777777777777,0)" xlink:href="#q"/><use transform="matrix(0.0987654320987654,0,0,0.0987654320987654,35.55555555555554,0)" xlink:href="#p"/><use transform="matrix(0.0987654320987654,0,0,0.0987654320987654,53.333333333333314,0)" xlink:href="#E"/></g><path fill="#3a414a" d="M90-239c42 0 69 19 69 61 0 28-14 44-35 53 25 8 42 28 42 61 0 47-28 68-77 68-48 0-75-21-75-68-1-33 18-51 41-61-19-9-34-25-34-53 0-42 26-61 69-61zM89-10c34 0 46-20 46-54 0-32-11-53-46-53-34 0-44 20-44 53-1 34 11 54 44 54zm0-123c28 0 38-16 38-45s-9-47-38-47c-28-1-36 18-36 47s8 45 36 45" id="J"/><g id="n"><use transform="matrix(0.06172839506172839,0,0,0.06172839506172839,0,0)" xlink:href="#E"/><use transform="matrix(0.06172839506172839,0,0,0.06172839506172839,11.11111111111111,0)" xlink:href="#J"/><use transform="matrix(0.06172839506172839,0,0,0.06172839506172839,22.22222222222222,0)" xlink:href="#q"/><use transform="matrix(0.06172839506172839,0,0,0.06172839506172839,33.33333333333333,0)" xlink:href="#q"/></g></defs></g></svg>