<svg xmlns="http://www.w3.org/2000/svg" xmlns:xlink="http://www.w3.org/1999/xlink" xmlns:lucid="lucid" width="1049.13" height="599.33"><g transform="translate(-151.53661932218287 -170.66666666670545)" lucid:page-tab-id="0_0"><path d="M388 190.67c17.67 0 32 17.9 32 40s-14.33 40-32 40h-96c-17.67 0-32-17.9-32-40s14.33-40 32-40z" stroke="#3a414a" fill="#fff"/><use xlink:href="#a" transform="matrix(1,0,0,1,265.00000000003877,195.66666666670545) translate(44.53703703703704 39.65277777777778)"/><use xlink:href="#b" transform="matrix(1,0,0,1,265.00000000003877,195.66666666670545) translate(94.35185185185185 39.65277777777778)"/><path d="M388 498.67c17.67 0 32 17.9 32 40s-14.33 40-32 40h-96c-17.67 0-32-17.9-32-40s14.33-40 32-40z" stroke="#3a414a" fill="#fff"/><use xlink:href="#c" transform="matrix(1,0,0,1,265.00000000003877,503.66666666666663) translate(44.53703703703704 39.65277777777778)"/><use xlink:href="#d" transform="matrix(1,0,0,1,265.00000000003877,503.66666666666663) translate(94.35185185185185 39.65277777777778)"/><path d="M198 276.67a6 6 0 0 1 6-6h280a6 6 0 0 1 6 6v96a6 6 0 0 1-6 6H204a6 6 0 0 1-6-6zm29.2-6v108m-29.2-78.8h292" stroke="#3a414a" fill="#fff"/><use xlink:href="#e" transform="matrix(1,0,0,1,232.2000000000388,304.86666666670544) translate(58.691358024691354 26.40277777777778)"/><use xlink:href="#f" transform="matrix(1,0,0,1,232.2000000000388,304.86666666670544) translate(106.03703703703704 26.40277777777778)"/><use xlink:href="#g" transform="matrix(1,0,0,1,232.2000000000388,304.86666666670544) translate(172.08641975308643 26.40277777777778)"/><use xlink:href="#h" transform="matrix(1,0,0,1,232.2000000000388,304.86666666670544) translate(50.080246913580254 53.06944444444445)"/><use xlink:href="#i" transform="matrix(1,0,0,1,232.2000000000388,304.86666666670544) translate(123.4135802469136 53.06944444444445)"/><use xlink:href="#j" transform="matrix(1,0,0,1,232.2000000000388,304.86666666670544) translate(169.58641975308643 53.06944444444445)"/><path d="M212.67 584.67a6 6 0 0 1 6-6h280a6 6 0 0 1 6 6v96a6 6 0 0 1-6 6h-280a6 6 0 0 1-6-6zm29.2-6v108m-29.2-78.8h292" stroke="#3a414a" fill="#fff"/><use xlink:href="#e" transform="matrix(1,0,0,1,246.8666666666667,612.8666666666666) translate(58.691358024691354 26.40277777777778)"/><use xlink:href="#f" transform="matrix(1,0,0,1,246.8666666666667,612.8666666666666) translate(106.03703703703704 26.40277777777778)"/><use xlink:href="#k" transform="matrix(1,0,0,1,246.8666666666667,612.8666666666666) translate(172.08641975308643 26.40277777777778)"/><use xlink:href="#h" transform="matrix(1,0,0,1,246.8666666666667,612.8666666666666) translate(50.080246913580254 53.06944444444445)"/><use xlink:href="#i" transform="matrix(1,0,0,1,246.8666666666667,612.8666666666666) translate(123.4135802469136 53.06944444444445)"/><use xlink:href="#l" transform="matrix(1,0,0,1,246.8666666666667,612.8666666666666) translate(169.58641975308643 53.06944444444445)"/><path d="M929.87 382.27a8 8 0 0 1 9.6 0l70.4 52.8a4.5 4.5 0 0 1 0 7.2l-70.4 52.8a8 8 0 0 1-9.6 0l-70.4-52.8a4.5 4.5 0 0 1 0-7.2z" stroke="#3a414a" fill="#fff"/><use xlink:href="#m" transform="matrix(1,0,0,1,859.6666666666667,383.6666666667055) translate(55.282777777777774 59.02777777777778)"/><path d="M772.18 501.5a23.9 23.9 0 0 1 11.3-2.83h290.4a23.9 23.9 0 0 1 11.28 2.83l90.22 48.33a3.2 3.2 0 0 1 0 5.67l-90.22 48.33a23.9 23.9 0 0 1-11.3 2.84h-290.4a23.9 23.9 0 0 1-11.28-2.84l-90.22-48.33a3.2 3.2 0 0 1 0-5.67z" stroke="#3a414a" fill="#fff"/><use xlink:href="#e" transform="matrix(1,0,0,1,681.6666666666671,503.6666666667056) translate(127.37537037037035 39.43402777777778)"/><use xlink:href="#n" transform="matrix(1,0,0,1,681.6666666666671,503.6666666667056) translate(174.72104938271605 39.43402777777778)"/><use xlink:href="#o" transform="matrix(1,0,0,1,681.6666666666671,503.6666666667056) translate(234.5975925925926 39.43402777777778)"/><use xlink:href="#p" transform="matrix(1,0,0,1,681.6666666666671,503.6666666667056) translate(252.684012345679 39.43402777777778)"/><use xlink:href="#q" transform="matrix(1,0,0,1,681.6666666666671,503.6666666667056) translate(280.4617901234568 39.43402777777778)"/><use xlink:href="#r" transform="matrix(1,0,0,1,681.6666666666671,503.6666666667056) translate(298.5482098765432 39.43402777777778)"/><use xlink:href="#o" transform="matrix(1,0,0,1,681.6666666666671,503.6666666667056) translate(326.325987654321 39.43402777777778)"/><use xlink:href="#s" transform="matrix(1,0,0,1,681.6666666666671,503.6666666667056) translate(344.4124074074074 39.43402777777778)"/><use xlink:href="#h" transform="matrix(1,0,0,1,681.6666666666671,503.6666666667056) translate(91.66549382716047 66.10069444444446)"/><use xlink:href="#t" transform="matrix(1,0,0,1,681.6666666666671,503.6666666667056) translate(164.99882716049382 66.10069444444446)"/><use xlink:href="#o" transform="matrix(1,0,0,1,681.6666666666671,503.6666666667056) translate(204.99882716049382 66.10069444444446)"/><use xlink:href="#u" transform="matrix(1,0,0,1,681.6666666666671,503.6666666667056) translate(223.08524691358022 66.10069444444446)"/><use xlink:href="#q" transform="matrix(1,0,0,1,681.6666666666671,503.6666666667056) translate(269.3198148148148 66.10069444444446)"/><use xlink:href="#v" transform="matrix(1,0,0,1,681.6666666666671,503.6666666667056) translate(287.40623456790127 66.10069444444446)"/><use xlink:href="#o" transform="matrix(1,0,0,1,681.6666666666671,503.6666666667056) translate(350.92475308641974 66.10069444444446)"/><use xlink:href="#w" transform="matrix(1,0,0,1,681.6666666666671,503.6666666667056) translate(369.01117283950623 66.10069444444446)"/><path d="M421 230.67h211.83a6 6 0 0 1 6 6v196a6 6 0 0 0 6 6h195.95" stroke="#3a414a" fill="none"/><path d="M421 231.17h-.53l.03-.5-.02-.5h.53z" stroke="#3a414a" stroke-width=".05" fill="#3a414a"/><path d="M855.55 438.67l-14.27 4.63v-9.27z" stroke="#3a414a" fill="#3a414a"/><path d="M340 497.67v-53a6 6 0 0 1 6-6h494.78" stroke="#3a414a" fill="none"/><path d="M340.5 498.17h-1v-.52h1z" stroke="#3a414a" stroke-width=".05" fill="#3a414a"/><path d="M855.55 438.67l-14.27 4.63v-9.27z" stroke="#3a414a" fill="#3a414a"/><path d="M197.04 324.67h-2.1m-4.18 0h-4.2m-4.18 0h-4.2m-4.17 0h-4.18m-4.2 0h-2.08l-.94.07-.92.22-.2.1m-3.17 2.68l-.1.2-.37.87-.22.93v1.98m0 3.98v3.96m0 3.97v3.97m0 3.97v3.96m0 3.97v3.96m0 3.97v3.97m0 3.96v3.97m0 3.96v3.97m0 3.96v3.96m0 3.96v3.97m0 3.95v3.97m0 3.97v3.95m0 3.97v3.96m0 3.97v3.96m0 3.98v3.96m0 3.97v3.98m0 3.96v3.97m0 3.97v3.97m0 3.96v3.97m-.02 3.96v3.97m0 3.96v3.97m0 3.97v3.96m0 3.97v3.96m0 3.96v3.96m0 3.97v3.95m0 3.97v3.96m0 3.97v3.97m0 3.96v3.97m0 3.96v3.98m0 3.96v3.97m0 3.97v3.97m0 3.97v3.97m0 3.97v3.96m0 3.97v3.96m-.02 3.97v3.96m0 3.97v3.96m0 3.96v3.97m0 3.96v3.96m0 3.96v3.97m0 3.95v3.97m0 3.96v3.97m0 3.96v3.98m0 3.97v3.96m0 3.98v3.96m0 3.97v3.97m0 3.97v3.96m0 3.97v3.97m0 3.96v3.97m0 3.96l-.02 3.97m0 3.96v3.97m0 3.96v3.96m0 3.96v3.97m0 3.96v3.96m0 3.97v3.95m0 3.97V758l.07.94.23.9.1.23m2.68 3.15l.2.13.88.36.92.23h2m4 0h4m4 0h4m4 0h4m4 0h4m4 0h4m4 0h4m4 0h3.98m4 0h4m4 0h4m4 0h4m4 0h4m4 0h4m4 0h4m4 0h4m4 0h4m4 0h4m4 0h3.98m4 0h4m4 .02h4m4 0h4m4 0h4m4 0h4m4 0h4m4 0h4m4 0h4m4 0h4m4 0h4m3.98 0h4m4 0h4m4 0h4m4 0h4m4 0h4m4 0h4m4 0h4m4 0h4m4 0h4m4 0h4m4 0h3.98m4 .02h4m4 0h4m4 0h4m4 0h4m4 0h4m4 0h4m4 0h4m4 0h4m4 0h4m4 0h4m3.98 0h4m4 0h4m4 0h4m4 0h4m4 0h4m4 0h4m4 0h4m4 0h4m4 0h4m4 0l4 .02m4 0h3.98m4 0h4m4 0h4m4 0h4m4 0h4m4 0h4m4 0h4m4 0h4m4 0h4m4 0h4m4 0h4m3.98 0h4m4 0h4m4 0h4m4 0h2l.94-.07.9-.22.23-.08m3.15-2.7l.12-.2.36-.87.22-.9v-1.97m0-3.9v-3.93m0-3.9v-3.93m0-3.9l.02-3.92m0-3.92v-3.9m0-3.93v-3.9m0-3.93v-3.9m0-3.92v-3.92m0-3.9l.02-3.93m0-3.9v-3.93m0-3.9v-3.92m0-3.92v-3.9m0-3.93v-3.9m0-3.93l.02-3.9m0-3.92v-3.92m0-3.9v-3.93m0-3.9v-3.93m0-3.9v-3.93m0-3.92l.02-3.9m0-3.93v-1.96" stroke="#3a414a" fill="none"/><path d="M197.54 325.17h-.52v-1h.52z" stroke="#3a414a" stroke-width=".05" fill="#3a414a"/><path d="M752.46 595.43l4.63 14.26h-9.28z" stroke="#3a414a" fill="#fff"/><path d="M328 687.64v2.1m0 4.18v4.2m0 4.17v4.18m0 4.2v4.18m0 4.18v2.1l.07.94.22.9.08.23m2.7 3.16l.2.12.87.36.9.22h2.04m4.05 0h4.06m4.07 0h4.05m4.06 0h4.06m4.06 0h4.06m4.05.02h4.07m4.06 0h4.06m4.05 0h4.05m4.06 0h4.06m4.06 0h4.06m4.06 0h4.05m4.06 0h4.07m4.06 0h4.06m4.04 0l4.06.02m4.06 0h4.06m4.06 0h4.06m4.05 0h4.05m4.06 0h4.07m4.06 0h4.05m4.06 0h4.06m4.06 0h4.06m4.05 0h4.06m4.06.02h4.05m4.06 0h4.07m4.05 0h4.06m4.06 0H538m4.06 0h4.05m4.07 0h4.06m4.06 0h4.05m4.06 0h4.06m4.06 0l4.06.02m4.06 0h2.03l.94-.08.92-.22.22-.1m3.15-2.68l.1-.2.37-.87.22-.92v-2m0-4v-3.98m0-4v-4m0-3.98v-4m0-3.98v-4m0-4v-3.98m0-4v-3.98m0-4v-4m0-3.98v-4m.02-3.98v-4m0-4v-3.98m0-4v-3.98m0-4v-4m0-3.98v-4m0-3.98v-4m0-4v-3.98m0-4v-3.98m.02-4v-4m0-3.98v-4m0-4v-3.98m0-4v-3.98m0-4v-4m0-3.98v-4m0-3.98v-4m0-4v-3.98m.02-4v-3.98m0-4v-4m0-3.98v-4m0-3.98v-4m0-4v-1.98l.08-.94.22-.92.1-.2m2.68-3.17l.2-.1.87-.37.93-.22h1.97m3.96 0h3.95m3.96 0h3.95m3.96 0h3.96m3.95 0h3.95m3.95 0h3.95m3.96 0l3.95-.02m3.95 0h3.95m3.95 0h3.96m3.95 0h3.94m3.95 0l3.94-.02m3.96 0h3.95m3.95 0h3.95m3.95 0h3.96m3.95 0h3.96m3.95-.02h3.96m3.95 0h2l.93.07.92.23.2.1m3.16 2.68l.14.2.36.88.22.92v2.32m.02 4.64l.02 4.64m.02 4.63v2.32" stroke="#3a414a" fill="none"/><path d="M328.5 687.65h-1v-.5h1z" stroke="#3a414a" stroke-width=".05" fill="#3a414a"/><path d="M728.2 522.92l-4.64-14.27h9.27z" stroke="#3a414a" fill="#fff"/><defs><path fill="#3a414a" d="M111-226l-36 4v207c33-1 73 2 101-4l11-49h11l-3 68H10v-9l31-5v-208l-31-4v-10h101v10" id="x"/><path fill="#3a414a" d="M52-115c0 90 69 126 140 93v-67l-30-5v-9h87v9l-23 5v77c-27 8-56 16-90 16C59 2 15-37 15-115c-1-82 41-123 122-123 31 0 59 4 83 10v51h-12l-5-29c-15-12-38-18-65-18-66-1-86 42-86 109" id="y"/><path fill="#3a414a" d="M81-9v9H4v-9l26-5 81-224h33l83 224 30 5v9h-99v-9l31-5-23-68H73L49-14zm38-203L78-98h82" id="z"/><g id="a"><use transform="matrix(0.06172839506172839,0,0,0.06172839506172839,0,0)" xlink:href="#x"/><use transform="matrix(0.06172839506172839,0,0,0.06172839506172839,13.518518518518517,0)" xlink:href="#y"/><use transform="matrix(0.06172839506172839,0,0,0.06172839506172839,29.50617283950617,0)" xlink:href="#z"/></g><path fill="#3a414a" d="M110-14l48 5v9H32v-9l48-5v-192l-48 17v-10l69-39h9v224" id="A"/><use transform="matrix(0.06172839506172839,0,0,0.06172839506172839,0,0)" xlink:href="#A" id="b"/><g id="c"><use transform="matrix(0.06172839506172839,0,0,0.06172839506172839,0,0)" xlink:href="#x"/><use transform="matrix(0.06172839506172839,0,0,0.06172839506172839,13.518518518518517,0)" xlink:href="#y"/><use transform="matrix(0.06172839506172839,0,0,0.06172839506172839,29.50617283950617,0)" xlink:href="#z"/></g><path fill="#3a414a" d="M24-231c66-21 156 2 128 81C132-92 78-66 39-27h121V0H16v-26l59-54c26-25 47-47 47-97 0-48-47-57-81-37l-6 29H24v-46" id="B"/><use transform="matrix(0.06172839506172839,0,0,0.06172839506172839,0,0)" xlink:href="#B" id="d"/><path fill="#3a414a" d="M75-17c87 13 134-18 134-103 0-78-51-106-134-100v203zm171-102C246 5 139 7 10 0v-9l31-5v-208l-31-4v-10h107c82 0 129 35 129 117" id="C"/><path fill="#3a414a" d="M84-170c49 0 66 33 63 87H46c-8 60 38 80 95 63v10C128-2 108 4 88 4 34 4 14-29 14-84c-1-54 22-86 70-86zm33 73c12-57-57-82-69-24-1 7-2 15-2 24h71" id="D"/><path fill="#3a414a" d="M32-163c41-10 102-14 102 39v112c8 3 24-2 21 12h-45l-4-17C83 13 3 13 13-46c-2-50 45-50 92-51 4-36-5-70-42-56-6 2-12 4-16 6-4 7 0 23-15 20v-36zM42-47c0 41 41 33 63 22v-59c-34 1-63-1-63 37" id="E"/><path fill="#3a414a" d="M65-12l28 4v8H7v-8l28-4v-226l-28-4v-8h58v238" id="F"/><g id="e"><use transform="matrix(0.06172839506172839,0,0,0.06172839506172839,0,0)" xlink:href="#C"/><use transform="matrix(0.06172839506172839,0,0,0.06172839506172839,15.987654320987653,0)" xlink:href="#D"/><use transform="matrix(0.06172839506172839,0,0,0.06172839506172839,25.80246913580247,0)" xlink:href="#E"/><use transform="matrix(0.06172839506172839,0,0,0.06172839506172839,35.617283950617285,0)" xlink:href="#F"/></g><path fill="#3a414a" d="M52-115c0 93 80 130 150 87l7-35h11l-1 55c-23 7-52 12-83 12C60 4 19-37 15-115c-5-113 97-141 201-114l1 51h-12l-5-30c-15-9-39-16-62-16-66 0-86 41-86 109" id="G"/><path fill="#3a414a" d="M90-170c52 0 76 32 76 87 0 54-24 87-77 87-51 0-75-34-75-87 0-54 24-87 76-87zM89-10c39 0 46-35 46-73 0-39-7-73-46-73-39 1-44 34-44 73s6 72 44 73" id="H"/><path fill="#3a414a" d="M124-13C89 8 26 15 26-45v-108c-8-3-24 2-21-12h50v118c-3 37 42 32 69 25v-131l-25-4v-8h54v153c8 3 24-2 21 12h-48" id="I"/><path fill="#3a414a" d="M125-118c4-37-41-34-68-26v132l23 4v8H8C5-13 21-9 28-12v-141c-7-3-23 1-20-12h47l2 13c31-23 98-29 98 31v109c7 3 23-1 20 12h-72v-8l22-4v-106" id="J"/><path fill="#3a414a" d="M54-38c-1 25 24 26 44 20v12C71 10 25 9 25-35v-115H4c-2-14 14-10 21-15l18-38h11v38h38v15H54v112" id="K"/><path fill="#3a414a" d="M50-37c14 0 21 9 21 21S62 5 50 5C37 5 28-4 28-16s8-21 22-21zm0-132c12 0 21 9 21 21 0 13-9 22-21 22-13 0-22-9-22-22 0-12 9-21 22-21" id="L"/><g id="f"><use transform="matrix(0.06172839506172839,0,0,0.06172839506172839,0,0)" xlink:href="#G"/><use transform="matrix(0.06172839506172839,0,0,0.06172839506172839,14.814814814814813,0)" xlink:href="#H"/><use transform="matrix(0.06172839506172839,0,0,0.06172839506172839,25.925925925925924,0)" xlink:href="#I"/><use transform="matrix(0.06172839506172839,0,0,0.06172839506172839,37.03703703703704,0)" xlink:href="#J"/><use transform="matrix(0.06172839506172839,0,0,0.06172839506172839,48.14814814814815,0)" xlink:href="#K"/><use transform="matrix(0.06172839506172839,0,0,0.06172839506172839,54.320987654320994,0)" xlink:href="#L"/></g><g id="g"><use transform="matrix(0.06172839506172839,0,0,0.06172839506172839,0,0)" xlink:href="#A"/><use transform="matrix(0.06172839506172839,0,0,0.06172839506172839,11.11111111111111,0)" xlink:href="#B"/></g><path fill="#3a414a" d="M152 0h-7L59-203v189l32 5v9H10v-9l31-5v-208l-31-4v-10h72l76 180 84-180h68v10l-31 4v208l31 5v9h-96v-9l32-5v-189" id="M"/><path fill="#3a414a" d="M13-81c0-71 46-101 114-85l-1-72-28-4v-8h57v238c8 3 24-2 21 12h-47l-2-12C80 23 13-1 13-81zm77-74c-37 1-44 33-45 74 0 38 9 66 45 66 14 0 27-3 36-7v-130c-10-1-24-3-36-3" id="N"/><path fill="#3a414a" d="M47-200c-23 0-25-39 0-38 13 0 18 7 20 19-1 11-8 19-20 19zM65-12l28 4v8H8v-8l28-4v-141l-24-4v-8h53v153" id="O"/><g id="h"><use transform="matrix(0.06172839506172839,0,0,0.06172839506172839,0,0)" xlink:href="#M"/><use transform="matrix(0.06172839506172839,0,0,0.06172839506172839,19.753086419753085,0)" xlink:href="#D"/><use transform="matrix(0.06172839506172839,0,0,0.06172839506172839,29.5679012345679,0)" xlink:href="#N"/><use transform="matrix(0.06172839506172839,0,0,0.06172839506172839,40.67901234567901,0)" xlink:href="#O"/><use transform="matrix(0.06172839506172839,0,0,0.06172839506172839,46.851851851851855,0)" xlink:href="#E"/><use transform="matrix(0.06172839506172839,0,0,0.06172839506172839,56.66666666666667,0)" xlink:href="#J"/></g><path fill="#3a414a" d="M57-145c16-10 35-24 60-25v45c-19 1-8-30-40-17l-20 6v124l29 4v8H7v-8l21-4v-141c-8-3-24 2-21-12h48" id="P"/><g id="i"><use transform="matrix(0.06172839506172839,0,0,0.06172839506172839,0,0)" xlink:href="#P"/><use transform="matrix(0.06172839506172839,0,0,0.06172839506172839,7.345679012345679,0)" xlink:href="#D"/><use transform="matrix(0.06172839506172839,0,0,0.06172839506172839,17.160493827160494,0)" xlink:href="#J"/><use transform="matrix(0.06172839506172839,0,0,0.06172839506172839,28.271604938271604,0)" xlink:href="#K"/><use transform="matrix(0.06172839506172839,0,0,0.06172839506172839,34.44444444444444,0)" xlink:href="#L"/></g><path fill="#3a414a" d="M104-123c39 3 61 21 62 59C167 7 83 12 19-4l-2-50h12c2 29 16 43 51 43 38 0 54-19 54-55 2-43-34-49-75-50v-14c37 0 64-7 64-48 0-47-47-56-81-36l-6 29H24v-46c51-13 135-13 131 51-2 34-20 52-51 57" id="Q"/><path fill="#3a414a" d="M90-239c59 0 76 52 76 120S152 4 89 4C31 4 14-51 14-119c0-67 17-120 76-120zM89-10c45-6 45-58 45-109 0-50 0-101-45-106-45 4-43 57-43 106 0 50-2 104 43 109" id="R"/><g id="j"><use transform="matrix(0.06172839506172839,0,0,0.06172839506172839,0,0)" xlink:href="#Q"/><use transform="matrix(0.06172839506172839,0,0,0.06172839506172839,11.11111111111111,0)" xlink:href="#R"/><use transform="matrix(0.06172839506172839,0,0,0.06172839506172839,22.22222222222222,0)" xlink:href="#R"/></g><path fill="#3a414a" d="M90-239c42 0 69 19 69 61 0 28-14 44-35 53 25 8 42 28 42 61 0 47-28 68-77 68-48 0-75-21-75-68-1-33 18-51 41-61-19-9-34-25-34-53 0-42 26-61 69-61zM89-10c34 0 46-20 46-54 0-32-11-53-46-53-34 0-44 20-44 53-1 34 11 54 44 54zm0-123c28 0 38-16 38-45s-9-47-38-47c-28-1-36 18-36 47s8 45 36 45" id="S"/><g id="k"><use transform="matrix(0.06172839506172839,0,0,0.06172839506172839,0,0)" xlink:href="#A"/><use transform="matrix(0.06172839506172839,0,0,0.06172839506172839,11.11111111111111,0)" xlink:href="#S"/></g><path fill="#3a414a" d="M142-52V0h-30v-52H7v-23l115-162h20v160h32v25h-32zm-30-25l-1-119L27-77h85" id="T"/><path fill="#3a414a" d="M134-68c4-52-44-63-88-51H29v-117h119v27H45v75c60-10 121-2 121 64C166 3 87 15 23-4l-2-50h12c1 28 14 43 47 43 39 0 51-20 54-57" id="U"/><g id="l"><use transform="matrix(0.06172839506172839,0,0,0.06172839506172839,0,0)" xlink:href="#T"/><use transform="matrix(0.06172839506172839,0,0,0.06172839506172839,11.11111111111111,0)" xlink:href="#U"/><use transform="matrix(0.06172839506172839,0,0,0.06172839506172839,22.22222222222222,0)" xlink:href="#R"/></g><path fill="#3a414a" d="M178-68c0 79-95 82-154 59v-54h12c1 35 22 52 60 52 50 0 69-58 33-82-39-24-105-21-105-85 0-67 86-66 142-53v49h-12l-6-29c-31-27-121-7-89 42 28 43 119 24 119 101" id="V"/><g id="m"><use transform="matrix(0.06172839506172839,0,0,0.06172839506172839,0,0)" xlink:href="#V"/><use transform="matrix(0.06172839506172839,0,0,0.06172839506172839,12.345679012345679,0)" xlink:href="#z"/><use transform="matrix(0.06172839506172839,0,0,0.06172839506172839,28.333333333333332,0)" xlink:href="#B"/></g><g id="n"><use transform="matrix(0.06172839506172839,0,0,0.06172839506172839,0,0)" xlink:href="#G"/><use transform="matrix(0.06172839506172839,0,0,0.06172839506172839,14.814814814814813,0)" xlink:href="#H"/><use transform="matrix(0.06172839506172839,0,0,0.06172839506172839,25.925925925925924,0)" xlink:href="#I"/><use transform="matrix(0.06172839506172839,0,0,0.06172839506172839,37.03703703703704,0)" xlink:href="#J"/><use transform="matrix(0.06172839506172839,0,0,0.06172839506172839,48.14814814814815,0)" xlink:href="#K"/></g><path fill="#3a414a" d="M185-92v17H18v-17h167zm0-73v18H18v-18h167" id="W"/><use transform="matrix(0.06172839506172839,0,0,0.06172839506172839,0,0)" xlink:href="#W" id="o"/><g id="p"><use transform="matrix(0.06172839506172839,0,0,0.06172839506172839,0,0)" xlink:href="#A"/><use transform="matrix(0.06172839506172839,0,0,0.06172839506172839,11.11111111111111,0)" xlink:href="#B"/></g><path fill="#3a414a" d="M111-111v75H92v-75H18v-17h74v-75h19v75h74v17h-74" id="X"/><use transform="matrix(0.06172839506172839,0,0,0.06172839506172839,0,0)" xlink:href="#X" id="q"/><g id="r"><use transform="matrix(0.06172839506172839,0,0,0.06172839506172839,0,0)" xlink:href="#A"/><use transform="matrix(0.06172839506172839,0,0,0.06172839506172839,11.11111111111111,0)" xlink:href="#S"/></g><g id="s"><use transform="matrix(0.06172839506172839,0,0,0.06172839506172839,0,0)" xlink:href="#Q"/><use transform="matrix(0.06172839506172839,0,0,0.06172839506172839,11.11111111111111,0)" xlink:href="#R"/></g><g id="t"><use transform="matrix(0.06172839506172839,0,0,0.06172839506172839,0,0)" xlink:href="#P"/><use transform="matrix(0.06172839506172839,0,0,0.06172839506172839,7.345679012345679,0)" xlink:href="#D"/><use transform="matrix(0.06172839506172839,0,0,0.06172839506172839,17.160493827160494,0)" xlink:href="#J"/><use transform="matrix(0.06172839506172839,0,0,0.06172839506172839,28.271604938271604,0)" xlink:href="#K"/></g><path fill="#3a414a" d="M108-235c-52 28-62 95-58 178 3 56 21 97 58 119v15C7 49-17-153 67-223c12-10 25-19 41-27v15" id="Y"/><g id="u"><use transform="matrix(0.06172839506172839,0,0,0.06172839506172839,0,0)" xlink:href="#Y"/><use transform="matrix(0.06172839506172839,0,0,0.06172839506172839,7.345679012345679,0)" xlink:href="#Q"/><use transform="matrix(0.06172839506172839,0,0,0.06172839506172839,18.45679012345679,0)" xlink:href="#R"/><use transform="matrix(0.06172839506172839,0,0,0.06172839506172839,29.567901234567902,0)" xlink:href="#R"/></g><path fill="#3a414a" d="M12-250C113-222 137-19 52 49 40 59 28 69 12 77V62C56 37 70-16 70-87c0-70-13-123-58-148v-15" id="Z"/><path fill="#3a414a" d="M18 4H0l83-241h17" id="aa"/><g id="v"><use transform="matrix(0.06172839506172839,0,0,0.06172839506172839,0,0)" xlink:href="#T"/><use transform="matrix(0.06172839506172839,0,0,0.06172839506172839,11.11111111111111,0)" xlink:href="#U"/><use transform="matrix(0.06172839506172839,0,0,0.06172839506172839,22.22222222222222,0)" xlink:href="#R"/><use transform="matrix(0.06172839506172839,0,0,0.06172839506172839,33.33333333333333,0)" xlink:href="#Z"/><use transform="matrix(0.06172839506172839,0,0,0.06172839506172839,40.679012345679006,0)" xlink:href="#aa"/><use transform="matrix(0.06172839506172839,0,0,0.06172839506172839,46.85185185185185,0)" xlink:href="#B"/></g><path fill="#3a414a" d="M35-180H24v-56h146v14L65 0H42l103-209H41" id="ab"/><g id="w"><use transform="matrix(0.06172839506172839,0,0,0.06172839506172839,0,0)" xlink:href="#Q"/><use transform="matrix(0.06172839506172839,0,0,0.06172839506172839,11.11111111111111,0)" xlink:href="#ab"/><use transform="matrix(0.06172839506172839,0,0,0.06172839506172839,22.22222222222222,0)" xlink:href="#U"/></g></defs></g></svg>